<?xml version="1.0" standalone="no"?>
<!DOCTYPE svg PUBLIC "-//W3C//DTD SVG 20010904//EN"
 "http://www.w3.org/TR/2001/REC-SVG-20010904/DTD/svg10.dtd">
<svg version="1.0" xmlns="http://www.w3.org/2000/svg"
 width="512.000000pt" height="512.000000pt" viewBox="0 0 512.000000 512.000000"
 preserveAspectRatio="xMidYMid meet">
<metadata>
Created by potrace 1.11, written by Peter Selinger 2001-2013
</metadata>
<g transform="translate(0.000000,512.000000) scale(0.100000,-0.100000)"
fill="#000000" stroke="none">
<path d="M2124 4836 c-17 -8 -68 -22 -115 -31 -46 -10 -92 -25 -101 -33 -26
-22 -22 -72 7 -112 37 -50 32 -64 -25 -88 -122 -51 -245 -131 -330 -214 -171
-168 -241 -313 -271 -563 -6 -49 -14 -121 -19 -160 -5 -38 -9 -103 -9 -143 -1
-122 -67 -346 -140 -479 -6 -10 -28 -57 -50 -105 -22 -48 -69 -132 -105 -187
-203 -309 -280 -651 -238 -1066 44 -441 320 -878 727 -1150 250 -166 496 -261
825 -316 117 -20 490 -17 625 5 210 35 452 114 622 206 393 211 684 539 823
930 69 192 84 285 84 530 0 186 -4 229 -23 319 -28 130 -69 247 -130 376 -44
93 -79 148 -206 330 -126 180 -194 289 -242 385 -51 103 -142 358 -183 515
-37 143 -147 343 -274 500 -118 146 -331 278 -561 346 -106 32 -118 33 -310
37 -229 4 -225 2 -225 89 0 71 -19 93 -80 93 -25 -1 -59 -7 -76 -14z m154
-2072 c37 -9 81 -20 98 -25 17 -5 73 -9 126 -9 70 0 99 -4 107 -14 7 -8 35
-17 64 -21 203 -28 387 -141 522 -321 32 -42 64 -78 72 -81 18 -7 46 -70 63
-143 8 -34 28 -75 52 -109 39 -51 40 -56 42 -140 2 -47 8 -96 14 -107 12 -23
16 -91 16 -289 0 -95 -5 -146 -18 -189 -65 -217 -239 -394 -465 -471 -195 -67
-234 -76 -363 -82 -135 -6 -137 -6 -348 54 -158 44 -363 160 -571 323 -90 71
-259 255 -259 283 0 10 -18 40 -40 65 -41 49 -91 158 -116 250 -10 37 -14 111
-14 248 0 183 2 200 26 275 32 98 137 260 218 337 40 38 90 70 174 110 l117
57 200 6 c110 3 204 6 208 7 5 1 39 -5 75 -14z"/>
</g>
</svg>
